{"glyphs":{":":{"x_min":0,"x_max":280,"ha":280,"o":"m 89 248 q 89 269 104 284 q 119 299 140 299 q 161 299 176 284 q 191 269 191 248 q 191 227 176 212 q 161 197 140 197 q 120 197 104 212 q 89 228 89 248 z m 89 38 q 89 59 104 74 q 119 89 140 89 q 161 89 176 74 q 191 59 191 38 q 191 17 176 2 q 161 -13 140 -13 q 120 -13 104 2 q 89 17 89 38 z"},"$":{"x_min":0,"x_max":556,"ha":556,"o":"m 302 23 q 360 29 397 61 q 434 93 434 133 q 434 172 407 201 q 380 230 324 251 z m 210 26 q 226 23 243 22 q 259 21 279 21 l 301 260 l 234 286 z m 239 569 q 192 559 167 534 q 142 510 142 475 q 142 447 162 425 q 181 403 221 385 z m 244 375 l 310 349 l 331 565 q 318 568 303 570 q 289 572 273 572 l 262 572 z m 300 2 l 286 -142 q 285 -146 282 -149 q 278 -153 275 -153 q 270 -153 267 -150 q 263 -146 263 -142 l 263 -140 l 277 1 q 273 1 267 0 q 261 0 259 0 q 247 0 217 4 q 211 5 208 6 l 194 -142 q 193 -147 190 -150 q 187 -153 183 -153 q 178 -153 174 -150 q 170 -146 170 -142 l 170 -140 l 186 10 q 121 25 84 67 q 48 108 48 166 q 48 182 51 188 q 54 195 61 195 q 67 195 71 191 q 74 188 74 182 q 74 179 73 168 q 71 158 71 150 q 71 113 103 80 q 134 47 187 31 l 213 296 q 150 325 120 360 q 91 396 91 441 q 91 497 132 538 q 174 579 241 590 l 252 701 q 253 706 256 709 q 259 712 263 712 q 268 712 271 708 q 275 705 275 701 l 275 699 l 264 592 q 267 593 270 593 q 273 593 280 593 q 294 593 307 591 q 320 589 333 586 l 344 701 q 345 706 348 709 q 351 712 355 712 q 359 712 363 708 q 367 705 367 700 l 367 699 l 356 580 q 397 563 424 537 q 451 511 451 491 q 451 484 448 481 q 444 478 436 478 q 435 478 417 509 q 399 540 353 557 l 332 341 q 411 309 449 268 q 488 226 488 173 q 488 107 436 59 q 383 10 300 2 z"},"?":{"x_min":0,"x_max":407,"ha":407,"o":"m 112 38 q 112 59 127 74 q 142 89 163 89 q 184 89 199 74 q 214 59 214 38 q 214 17 199 2 q 184 -13 163 -13 q 143 -13 127 2 q 112 17 112 38 z m 173 178 q 164 178 156 192 q 149 205 149 224 q 149 264 199 344 q 217 373 226 389 q 249 428 261 474 q 273 521 273 569 q 273 647 249 684 q 226 720 175 720 q 130 720 96 696 q 62 671 52 632 q 50 625 49 613 q 46 592 35 592 q 29 592 26 597 q 23 603 23 611 q 23 662 74 705 q 125 748 190 748 q 264 748 310 699 q 357 649 357 571 q 357 522 337 479 q 317 437 268 382 q 205 312 188 284 q 172 255 172 229 q 172 217 177 205 q 183 194 183 189 q 183 185 180 181 q 178 178 173 178 z"},"<":{"x_min":0,"x_max":833,"ha":833,"o":"m 704 505 l 194 298 l 704 91 l 704 48 l 129 283 l 129 313 l 704 549 z"},"'":{"x_min":0,"x_max":139,"ha":139,"o":"m 91 700 l 91 430 l 49 430 l 49 700 z"},"=":{"x_min":0,"x_max":833,"ha":833,"o":"m 709 229 l 709 189 l 124 189 l 124 229 z m 709 406 l 709 367 l 124 367 l 124 406 z"},"a":{"x_min":0,"x_max":377,"ha":377,"o":"m 251 25 q 231 8 208 0 q 185 -9 159 -9 q 97 -9 62 30 q 26 69 26 137 q 26 204 68 249 q 110 295 172 295 q 193 295 214 287 q 234 279 251 265 l 250 286 l 323 286 q 322 272 321 259 q 321 245 321 222 l 321 193 l 321 64 q 321 42 321 28 q 322 14 323 0 l 249 0 z m 251 51 l 251 239 q 234 256 214 265 q 194 274 172 274 q 120 274 84 235 q 49 196 49 137 q 49 79 78 45 q 108 11 159 11 q 184 11 207 21 q 229 31 251 51 z"},"L":{"x_min":0,"x_max":458,"ha":458,"o":"m 174 731 q 171 676 170 631 q 169 585 169 546 l 169 21 l 393 21 q 409 21 427 22 q 446 23 450 23 q 459 23 463 20 q 467 17 467 10 q 467 3 463 1 q 460 -2 450 -2 q 446 -2 427 -1 q 409 0 393 0 l 62 0 q 64 52 66 98 q 67 144 67 185 l 67 546 q 67 587 66 633 q 64 679 62 731 z"},"3":{"x_min":0,"x_max":502,"ha":502,"o":"m 301 334 q 281 340 266 343 q 251 346 239 346 q 221 346 211 342 q 201 338 201 330 q 201 322 208 318 q 216 314 231 314 q 246 314 263 319 q 280 324 301 334 z m 316 319 q 292 307 271 300 q 250 294 231 294 q 207 294 192 304 q 177 314 177 330 q 177 346 194 356 q 210 366 237 366 q 258 366 278 363 q 297 359 318 351 q 326 370 330 393 q 334 417 334 445 q 334 517 310 550 q 285 583 233 583 q 189 583 154 565 q 119 546 103 516 q 98 506 94 492 q 88 474 79 474 q 73 474 69 477 q 66 480 66 485 q 66 526 117 565 q 168 604 238 604 q 316 604 366 563 q 416 521 416 458 q 416 425 398 395 q 380 364 346 339 q 399 312 427 271 q 455 229 455 175 q 455 92 389 40 q 323 -12 215 -12 q 130 -12 69 34 q 8 80 8 136 q 8 144 11 148 q 15 152 22 152 q 33 152 34 134 q 36 116 40 106 q 58 61 104 35 q 150 10 213 10 q 289 10 326 51 q 363 92 363 175 q 363 231 352 264 q 341 297 316 319 z"},";":{"x_min":0,"x_max":280,"ha":280,"o":"m 86 248 q 86 269 102 284 q 118 299 139 299 q 160 299 175 284 q 190 269 190 248 q 190 227 175 212 q 160 197 139 197 q 119 197 103 212 q 88 227 86 248 z m 169 0 q 161 -7 152 -10 q 144 -13 134 -13 q 112 -13 99 1 q 86 15 86 38 q 86 61 99 75 q 113 90 135 90 q 163 90 180 68 q 198 46 198 11 q 198 -35 158 -83 q 118 -131 94 -131 q 90 -131 88 -128 q 85 -126 85 -122 q 85 -117 101 -105 q 161 -64 169 0 z"},"J":{"x_min":0,"x_max":463,"ha":463,"o":"m 396 546 l 396 291 q 396 188 382 140 q 369 92 336 55 q 308 23 262 4 q 216 -16 169 -16 q 91 -16 42 27 q -7 70 -7 136 q -7 165 4 187 q 14 208 27 208 q 32 208 36 205 q 39 202 39 197 q 39 191 27 173 q 15 154 15 133 q 15 80 56 43 q 97 6 159 6 q 196 6 224 21 q 252 36 269 64 q 283 88 288 123 q 294 158 294 242 l 294 278 l 294 546 q 294 588 293 633 q 292 678 289 731 l 400 731 q 398 688 397 642 q 396 597 396 546 z"},"V":{"x_min":0,"x_max":613,"ha":613,"o":"m 350 130 l 575 693 q 578 701 583 715 q 590 738 598 738 q 604 738 608 735 q 613 731 613 727 q 613 722 605 704 q 599 692 596 684 l 323 -1 q 320 -8 317 -12 q 313 -16 310 -16 q 308 -16 304 -11 q 300 -6 297 2 l 55 597 q 43 625 30 656 q 17 688 -3 731 l 112 731 q 115 713 131 674 q 135 665 137 659 z"},"\"":{"x_min":0,"x_max":269,"ha":269,"o":"m 220 700 l 220 430 l 178 430 l 178 700 z m 91 700 l 91 430 l 49 430 l 49 700 z"},"7":{"x_min":0,"x_max":477,"ha":477,"o":"m 397 537 q 404 535 411 534 q 418 533 425 533 q 445 533 459 542 q 473 550 473 562 q 473 568 468 573 q 463 577 455 577 q 440 577 425 566 q 409 555 397 537 z m 373 542 q 390 567 412 582 q 434 596 455 596 q 474 596 485 586 q 496 577 496 561 q 496 542 475 527 q 454 512 425 512 q 415 512 405 514 q 394 516 383 519 q 361 491 336 417 q 311 343 281 221 q 262 143 252 94 q 241 46 235 11 q 234 4 231 1 q 228 -1 222 -2 l 150 -11 q 149 -11 145 -12 q 141 -12 138 -12 q 135 -12 133 -10 q 131 -9 131 -7 q 131 10 159 97 q 188 183 230 284 q 263 362 295 422 q 327 482 356 521 q 294 528 223 546 q 152 563 139 563 q 107 563 87 545 q 68 526 68 497 q 68 479 79 465 q 91 451 91 448 q 91 444 88 440 q 85 437 81 437 q 70 437 59 455 q 48 473 48 497 q 48 539 81 566 q 114 593 166 593 q 208 593 300 563 q 347 549 373 542 z"},"S":{"x_min":0,"x_max":551,"ha":551,"o":"m 505 204 q 505 109 430 46 q 356 -16 237 -16 q 145 -16 77 37 q 10 90 10 153 q 10 163 14 167 q 18 172 25 172 q 30 172 33 167 q 37 163 37 157 q 37 155 37 153 q 36 150 36 149 q 36 92 95 49 q 155 5 239 5 q 324 5 375 47 q 425 88 425 159 q 425 206 396 242 q 368 279 290 326 q 282 331 267 339 q 103 436 103 548 q 103 631 169 690 q 236 748 332 748 q 369 748 390 742 q 411 736 411 726 q 411 721 408 718 q 405 715 400 715 q 399 715 393 717 q 364 727 332 727 q 261 727 216 689 q 170 651 170 592 q 170 521 311 438 q 340 421 356 412 q 443 360 474 314 q 505 269 505 204 z"},"}":{"x_min":0,"x_max":500,"ha":500,"o":"m 266 537 l 266 420 q 266 343 294 311 q 323 280 392 280 q 396 280 403 280 q 410 281 414 281 l 414 237 q 410 237 403 237 q 396 238 392 238 q 323 238 294 207 q 266 175 266 98 l 266 -19 q 266 -129 233 -166 q 199 -202 107 -202 l 86 -202 l 86 -159 l 105 -159 q 170 -159 193 -135 q 216 -110 216 -31 l 216 87 q 216 172 237 208 q 258 243 312 259 q 258 274 237 310 q 216 346 216 431 l 216 549 q 216 628 193 653 q 170 678 104 678 l 86 678 l 86 721 l 107 721 q 199 721 233 685 q 266 648 266 537 z"},"Z":{"x_min":0,"x_max":593,"ha":593,"o":"m 132 21 l 475 21 q 491 21 510 22 q 528 23 532 23 q 542 23 545 20 q 549 17 549 10 q 549 3 545 1 q 542 -2 532 -2 q 528 -2 510 -1 q 491 0 475 0 l 47 0 q 38 0 33 3 q 28 6 28 11 q 28 13 30 18 q 31 22 34 27 l 441 711 l 161 711 q 146 711 128 709 q 110 708 106 708 q 95 708 91 711 q 87 714 87 721 q 87 728 91 731 q 95 734 104 734 q 107 734 126 732 q 146 731 161 731 l 525 731 q 534 731 539 728 q 545 724 545 719 q 545 716 543 712 q 542 708 539 704 z"},"x":{"x_min":0,"x_max":315,"ha":315,"o":"m 172 187 l 239 260 q 245 266 253 277 q 267 295 272 295 q 277 295 281 292 q 284 288 284 284 q 284 278 265 258 q 258 251 254 247 l 187 172 l 281 54 q 293 39 305 25 q 316 12 327 0 l 233 0 l 230 5 q 220 23 218 25 l 142 121 l 57 26 q 51 20 43 8 q 30 -9 24 -9 q 20 -9 17 -6 q 13 -3 13 1 q 13 8 42 40 l 42 40 l 127 135 l 54 231 q 49 237 37 252 q 24 267 8 285 l 102 285 q 106 277 110 271 q 114 264 117 260 z"},")":{"x_min":0,"x_max":336,"ha":336,"o":"m 189 304 q 189 461 149 561 q 110 661 24 720 q 21 722 17 725 q 0 736 0 741 q 0 744 2 746 q 4 748 7 748 q 18 748 57 721 q 96 695 134 657 q 203 588 239 499 q 274 409 274 304 q 274 199 239 110 q 203 21 134 -48 q 96 -86 57 -113 q 18 -139 7 -139 q 4 -139 2 -137 q 0 -135 0 -132 q 0 -127 17 -116 q 21 -113 24 -111 q 110 -51 149 48 q 189 147 189 304 z"},"&":{"x_min":0,"x_max":667,"ha":667,"o":"m 434 124 q 373 191 319 258 q 266 326 218 396 q 135 354 91 298 q 48 242 48 178 q 48 103 98 54 q 149 5 228 5 q 286 5 333 32 q 381 60 434 124 z m 294 452 q 365 489 398 526 q 430 563 430 608 q 430 656 394 691 q 358 725 308 725 q 265 725 236 699 q 207 673 207 635 q 207 608 226 567 q 246 526 294 452 z m 449 109 q 393 42 343 13 q 292 -16 232 -16 q 141 -16 84 38 q 28 92 28 178 q 28 249 74 310 q 121 371 208 414 q 169 467 150 513 q 130 560 130 599 q 130 662 177 705 q 225 748 295 748 q 361 748 406 708 q 451 667 451 608 q 451 557 416 515 q 380 473 307 435 q 354 373 398 318 q 442 262 487 210 q 528 277 569 322 q 610 366 627 366 q 632 366 637 362 q 641 357 641 352 q 641 348 625 335 q 554 283 501 194 l 591 106 q 598 99 611 88 q 625 77 645 61 l 570 -16 q 560 -4 553 4 q 546 11 541 16 z"},"_":{"x_min":0,"x_max":500,"ha":500,"o":"m 500 -197 l 500 -236 l 0 -236 l 0 -197 z"},"v":{"x_min":0,"x_max":312,"ha":312,"o":"m 189 70 l 274 254 q 277 260 281 270 q 292 295 300 295 q 305 295 308 292 q 312 289 312 285 q 312 280 304 267 q 297 253 293 245 l 180 2 q 178 -3 174 -6 q 170 -9 166 -9 q 162 -9 159 -6 q 156 -4 153 2 l 28 241 q 23 250 16 261 q 9 273 0 286 l 87 286 q 90 274 94 264 q 98 254 101 248 z"},"O":{"x_min":0,"x_max":774,"ha":774,"o":"m 415 727 q 280 727 210 634 q 141 540 141 357 q 141 186 209 95 q 277 5 405 5 q 540 5 632 112 q 723 219 723 379 q 723 528 634 627 q 544 727 415 727 z m 397 -16 q 235 -16 132 89 q 28 193 28 356 q 28 454 67 536 q 106 619 179 675 q 226 711 282 729 q 338 748 401 748 q 553 748 650 644 q 747 541 747 378 q 747 208 648 96 q 548 -16 397 -16 z"},"(":{"x_min":0,"x_max":336,"ha":336,"o":"m 146 295 q 146 146 186 47 q 227 -52 312 -111 q 314 -112 319 -116 q 336 -127 336 -132 q 336 -135 334 -137 q 332 -139 329 -139 q 318 -139 279 -113 q 240 -86 202 -48 q 133 21 97 110 q 62 199 62 304 q 62 396 90 477 q 118 558 172 624 q 214 674 264 711 q 314 748 329 748 q 332 748 334 746 q 336 744 336 741 q 336 736 319 725 q 314 722 312 720 q 225 660 186 559 q 146 459 146 295 z"},"C":{"x_min":0,"x_max":727,"ha":727,"o":"m 688 174 q 688 165 676 143 q 664 122 645 99 q 597 42 533 13 q 469 -16 390 -16 q 235 -16 131 90 q 28 195 28 355 q 28 454 67 536 q 105 619 179 675 q 225 710 282 729 q 338 748 400 748 q 464 748 519 728 q 574 707 617 667 q 636 649 647 635 q 658 620 658 613 q 658 607 655 605 q 652 602 648 602 q 643 602 635 615 q 626 628 617 638 q 579 680 525 703 q 471 727 415 727 q 280 727 210 634 q 141 540 141 358 q 141 188 208 96 q 276 5 401 5 q 476 5 540 40 q 604 74 647 137 q 656 150 663 168 q 669 186 676 186 q 681 186 684 183 q 688 179 688 174 z"},"W":{"x_min":0,"x_max":877,"ha":877,"o":"m 572 -3 l 441 325 l 323 -1 q 320 -8 317 -12 q 313 -16 310 -16 q 308 -16 304 -12 q 301 -8 297 2 l 55 597 q 43 625 30 656 q 17 688 -3 731 l 112 731 q 115 713 132 672 q 135 664 137 659 l 349 128 l 429 354 l 334 597 q 329 612 316 642 q 303 672 277 731 l 392 731 q 395 715 412 670 q 416 663 417 659 l 487 478 l 572 693 q 575 701 579 713 q 587 738 596 738 q 602 738 606 734 q 611 731 611 726 q 611 722 604 708 q 598 694 594 685 l 498 448 l 621 128 l 839 693 q 842 701 847 715 q 854 738 862 738 q 868 738 873 735 q 877 732 877 728 q 877 725 870 709 q 864 694 860 685 l 596 -3 q 594 -9 590 -12 q 587 -16 583 -16 q 580 -16 577 -12 q 574 -9 572 -3 z"},"A":{"x_min":0,"x_max":634,"ha":634,"o":"m 142 279 l 421 279 l 284 618 z m 133 258 l 41 37 q 38 29 33 15 q 24 -8 16 -8 q 10 -8 6 -4 q 2 -1 2 4 q 2 8 10 25 q 16 38 19 46 l 108 258 l 64 258 q 54 258 43 257 q 32 257 30 257 q 20 257 16 260 q 12 263 12 269 q 12 275 16 277 q 20 280 30 280 q 31 280 42 279 q 53 279 64 279 l 117 279 l 305 726 l 305 727 q 315 748 326 748 q 331 748 336 743 q 340 739 344 730 l 586 134 q 599 102 614 69 q 628 35 644 0 l 529 0 q 526 17 510 55 q 505 67 503 73 l 429 258 z"},"f":{"x_min":0,"x_max":204,"ha":204,"o":"m 130 93 l 130 64 q 130 42 130 28 q 131 14 132 0 l 58 0 q 59 14 60 28 q 60 42 60 65 l 60 93 l 60 350 l 50 350 q 45 350 40 350 q 34 349 33 349 q 30 349 24 349 q 19 348 16 348 q 7 348 4 351 q 0 354 0 360 q 0 366 4 369 q 8 372 17 372 q 18 372 29 371 q 40 370 50 370 l 60 370 l 60 571 q 60 652 93 700 q 125 748 180 748 q 201 748 217 739 q 234 729 234 720 q 234 717 230 713 q 227 710 224 710 q 222 710 208 719 q 193 727 179 727 q 153 727 141 717 q 130 706 130 675 l 130 654 l 130 370 l 153 370 q 164 370 176 371 q 188 372 190 372 q 196 372 199 369 q 203 365 203 360 q 203 354 199 351 q 195 348 186 348 q 185 348 174 349 q 163 350 153 350 l 130 350 z"},"Q":{"x_min":0,"x_max":774,"ha":774,"o":"m 444 -14 q 480 -27 559 -81 q 638 -135 691 -135 q 710 -135 729 -128 q 748 -122 749 -122 q 754 -122 758 -126 q 761 -130 761 -134 q 761 -146 742 -153 q 723 -161 692 -161 q 636 -161 550 -100 q 463 -39 429 -26 q 409 -19 365 -15 q 322 -11 298 -5 q 175 26 101 124 q 28 222 28 355 q 28 454 67 537 q 106 619 179 675 q 226 711 282 729 q 338 748 401 748 q 553 748 650 644 q 747 541 747 378 q 747 224 662 114 q 577 3 444 -14 z m 415 727 q 280 727 210 634 q 141 540 141 357 q 141 186 209 95 q 277 5 405 5 q 540 5 632 112 q 723 219 723 379 q 723 528 634 627 q 544 727 415 727 z"},"w":{"x_min":0,"x_max":475,"ha":475,"o":"m 371 77 l 438 253 q 440 258 444 269 q 454 296 462 296 q 467 296 470 293 q 474 290 474 286 q 474 281 468 267 q 461 253 458 246 l 364 3 q 362 -2 358 -6 q 355 -9 351 -9 q 347 -9 344 -6 q 341 -4 338 2 l 239 199 l 156 2 q 154 -3 150 -6 q 146 -9 142 -9 q 138 -9 134 -6 q 131 -3 129 2 l 24 241 q 22 244 17 255 q 11 267 0 286 l 83 286 q 88 269 91 260 q 94 250 95 248 l 165 77 l 246 268 q 250 278 253 282 q 257 286 261 286 q 267 286 272 274 q 274 270 275 268 z"},"-":{"x_min":0,"x_max":259,"ha":259,"o":"m 25 118 l 25 181 l 234 181 l 234 118 z"},"E":{"x_min":0,"x_max":514,"ha":514,"o":"m 393 21 q 409 21 427 22 q 446 23 450 23 q 459 23 463 20 q 467 17 467 10 q 467 3 463 1 q 460 -2 450 -2 q 446 -2 427 -1 q 409 0 393 0 l 62 0 q 64 52 66 98 q 67 144 67 185 l 67 546 q 67 587 66 633 q 64 679 62 731 l 388 731 q 400 731 417 732 q 435 734 440 734 q 450 734 454 731 q 458 728 458 721 q 458 714 454 711 q 450 708 439 708 q 434 708 416 709 q 399 711 388 711 l 169 711 l 169 499 l 419 499 q 432 499 450 500 q 469 501 474 501 q 483 501 487 498 q 491 495 491 488 q 491 481 488 479 q 484 476 472 476 q 467 476 449 477 q 432 478 419 478 l 169 478 l 169 21 z"},"s":{"x_min":0,"x_max":269,"ha":269,"o":"m 240 78 q 240 40 208 13 q 176 -13 128 -13 q 90 -13 60 7 q 29 26 29 43 q 29 47 32 51 q 35 54 39 54 q 39 54 64 31 q 89 8 127 8 q 158 8 178 19 q 198 30 198 46 q 198 57 184 72 q 169 86 122 119 q 114 125 99 135 q 36 178 36 215 q 36 250 66 274 q 96 298 140 298 q 172 298 198 286 q 224 273 224 262 q 224 257 221 253 q 218 250 214 250 q 211 250 190 263 q 169 277 143 277 q 118 277 102 268 q 86 260 86 246 q 86 234 135 198 q 144 192 149 188 q 154 184 166 176 q 240 121 240 78 z"},">":{"x_min":0,"x_max":833,"ha":833,"o":"m 704 313 l 704 283 l 129 48 l 129 91 l 639 298 l 129 505 l 129 549 z"},"l":{"x_min":0,"x_max":183,"ha":183,"o":"m 57 639 q 57 666 56 687 q 56 708 54 731 l 128 731 q 127 717 126 704 q 126 690 126 667 l 126 639 l 126 64 q 126 42 126 28 q 127 14 128 0 l 54 0 q 56 22 56 44 q 57 65 57 93 z"},"8":{"x_min":0,"x_max":542,"ha":542,"o":"m 197 300 q 132 286 97 249 q 62 211 62 156 q 62 91 118 50 q 174 9 264 9 q 344 9 395 44 q 446 79 446 132 q 446 207 234 286 q 210 295 197 300 z m 334 343 q 385 362 413 394 q 441 426 441 465 q 441 518 397 551 q 354 583 281 583 q 216 583 175 554 q 135 526 135 482 q 135 444 168 417 q 201 391 334 343 z m 172 314 q 130 335 107 368 q 84 401 84 441 q 84 512 141 558 q 197 604 288 604 q 366 604 415 565 q 465 526 465 465 q 465 425 437 389 q 409 354 361 334 q 433 304 468 262 q 503 220 503 165 q 503 91 433 39 q 363 -12 257 -12 q 163 -12 101 36 q 39 83 39 156 q 39 213 74 254 q 108 295 172 314 z"},"\\":{"x_min":0,"x_max":278,"ha":278,"o":"m 280 -85 l -16 709 q -20 718 -22 725 q -24 731 -24 733 q -24 740 -20 744 q -17 749 -11 749 q -8 749 -4 747 q -1 744 1 740 l 297 -54 q 300 -61 302 -67 q 303 -73 303 -77 q 303 -82 299 -87 q 295 -92 292 -92 q 288 -92 285 -90 q 282 -88 280 -85 z"},"e":{"x_min":0,"x_max":315,"ha":315,"o":"m 110 231 l 110 155 q 110 142 123 136 q 136 131 162 131 q 207 131 239 156 q 270 180 270 214 q 270 242 249 260 q 227 278 194 278 q 157 278 133 265 q 110 252 110 231 z m 110 121 l 110 53 q 110 29 128 19 q 146 8 184 8 q 220 8 257 35 q 268 43 271 43 q 274 43 277 39 q 281 35 281 31 q 281 20 250 3 q 218 -13 180 -13 q 116 -13 71 31 q 25 74 25 138 q 25 206 75 252 q 125 299 197 299 q 237 299 264 274 q 292 250 292 214 q 292 171 255 141 q 218 111 164 111 q 149 111 135 114 q 122 116 110 121 z"},"b":{"x_min":0,"x_max":377,"ha":377,"o":"m 128 0 l 54 0 q 56 22 56 44 q 57 65 57 93 l 57 639 q 57 666 56 687 q 56 708 54 731 l 128 731 q 127 717 126 704 q 126 690 126 667 l 126 639 l 126 263 q 148 280 169 288 q 190 295 219 295 q 277 295 314 254 q 352 213 352 150 q 352 81 312 36 q 273 -9 212 -9 q 188 -9 166 -1 q 144 6 126 21 z m 126 49 q 143 30 164 21 q 185 12 212 12 q 262 12 295 51 q 328 90 328 149 q 328 205 297 239 q 267 274 218 274 q 190 274 168 264 q 146 255 126 235 z"},"%":{"x_min":0,"x_max":616,"ha":616,"o":"m 145 9 l 451 598 q 452 601 455 603 q 458 604 463 604 q 469 604 473 601 q 477 598 477 593 q 477 592 477 591 q 476 590 476 590 l 166 -5 q 164 -8 161 -10 q 157 -12 154 -12 q 149 -12 146 -9 q 142 -6 142 -1 q 142 1 143 3 q 143 5 145 9 z m 376 142 q 376 77 398 42 q 420 8 462 8 q 505 8 536 48 q 566 88 566 146 q 566 202 537 240 q 507 277 465 277 q 423 277 399 241 q 376 206 376 142 z m 317 136 q 317 207 357 252 q 397 297 460 297 q 515 297 552 255 q 588 212 588 147 q 588 78 551 33 q 514 -12 456 -12 q 396 -12 356 30 q 317 72 317 136 z m 28 444 q 28 514 68 559 q 108 604 171 604 q 226 604 262 562 q 299 520 299 454 q 299 385 262 341 q 225 296 167 296 q 107 296 67 338 q 28 380 28 444 z m 87 449 q 87 384 109 350 q 131 316 173 316 q 216 316 247 356 q 277 396 277 453 q 277 509 247 546 q 217 584 175 584 q 133 584 110 549 q 87 514 87 449 z"},"m":{"x_min":0,"x_max":578,"ha":578,"o":"m 57 193 q 57 220 56 242 q 56 264 54 286 l 128 286 q 127 282 126 277 q 126 272 126 262 l 126 245 q 148 269 176 282 q 203 295 230 295 q 263 295 285 281 q 308 268 319 241 q 344 267 372 281 q 400 295 428 295 q 478 295 500 269 q 523 242 523 185 l 523 64 q 523 42 523 28 q 524 14 525 0 l 451 0 q 453 22 453 44 q 454 65 454 93 l 454 226 q 454 249 444 261 q 435 273 416 273 q 395 273 371 260 q 347 247 323 221 q 323 214 324 201 q 325 188 325 185 l 325 64 q 325 42 326 28 q 326 14 327 0 l 253 0 q 254 14 254 28 q 255 42 255 65 l 255 93 l 255 226 q 255 250 246 261 q 236 273 218 273 q 195 273 171 259 q 146 246 126 221 l 126 64 q 126 42 126 28 q 127 14 128 0 l 54 0 q 56 22 56 44 q 57 65 57 93 z"},"#":{"x_min":0,"x_max":769,"ha":769,"o":"m 478 423 l 346 423 l 298 285 l 429 285 z m 447 710 l 362 467 l 494 467 l 580 710 l 634 710 l 549 467 l 706 467 l 691 423 l 533 423 l 484 285 l 654 285 l 639 241 l 468 241 l 383 0 l 328 0 l 414 241 l 282 241 l 195 0 l 141 0 l 226 241 l 63 241 l 78 285 l 242 285 l 291 423 l 115 423 l 129 467 l 307 467 l 393 710 z"},",":{"x_min":0,"x_max":280,"ha":280,"o":"m 169 0 q 161 -7 152 -10 q 144 -13 134 -13 q 112 -13 98 1 q 85 15 85 38 q 85 61 99 75 q 113 90 135 90 q 163 90 180 68 q 198 46 198 11 q 198 -35 158 -83 q 118 -131 94 -131 q 90 -131 88 -128 q 85 -126 85 -122 q 85 -117 101 -105 q 161 -64 169 0 z"},"n":{"x_min":0,"x_max":392,"ha":392,"o":"m 126 245 q 152 270 182 282 q 212 295 242 295 q 292 295 315 269 q 338 243 338 185 l 338 93 q 338 65 339 43 q 339 22 341 0 l 266 0 q 268 22 268 44 q 269 65 269 93 l 269 226 q 269 250 259 261 q 250 273 230 273 q 205 273 178 259 q 151 246 126 221 l 126 64 q 126 42 126 28 q 127 14 128 0 l 54 0 q 56 22 56 44 q 57 65 57 93 l 57 193 q 57 220 56 242 q 56 264 54 286 l 128 286 q 127 282 126 277 q 126 272 126 262 z"},"h":{"x_min":0,"x_max":392,"ha":392,"o":"m 126 93 l 126 64 q 126 42 126 28 q 127 14 128 0 l 54 0 q 56 22 56 44 q 57 65 57 93 l 57 639 q 57 666 56 687 q 56 708 54 731 l 128 731 q 127 717 126 704 q 126 690 126 667 l 126 639 l 126 245 q 152 270 182 282 q 212 295 242 295 q 292 295 315 269 q 338 243 338 185 l 338 93 q 338 65 339 43 q 339 22 341 0 l 266 0 q 268 22 268 44 q 269 65 269 93 l 269 226 q 269 250 259 261 q 250 273 230 273 q 205 273 178 259 q 151 246 126 221 z"},"z":{"x_min":0,"x_max":315,"ha":315,"o":"m 118 265 q 103 265 84 264 q 65 263 62 263 q 50 263 46 266 q 43 268 43 275 q 43 282 47 285 q 51 288 61 288 q 64 288 83 287 q 103 286 118 286 l 267 286 q 276 286 280 284 q 285 283 285 279 q 285 278 284 274 q 282 271 280 267 l 107 21 l 205 21 q 221 21 240 22 q 258 23 262 23 q 272 23 276 20 q 280 17 280 10 q 280 3 276 1 q 272 -2 262 -2 q 258 -2 240 -1 q 221 0 205 0 l 42 0 q 33 0 28 2 q 23 4 23 7 q 23 9 25 12 q 26 16 29 19 l 202 265 z"},"B":{"x_min":0,"x_max":595,"ha":595,"o":"m 62 0 q 64 52 66 98 q 67 144 67 185 l 67 546 q 67 587 66 633 q 64 679 62 731 l 215 731 q 339 731 407 681 q 475 631 475 540 q 475 511 465 484 q 455 457 435 433 q 495 399 526 350 q 556 300 556 236 q 556 126 480 63 q 404 0 270 0 z m 169 21 l 270 21 q 392 21 462 77 q 533 134 533 229 q 533 294 506 341 q 478 387 420 418 q 398 398 370 387 q 341 376 309 376 q 274 376 251 389 q 229 401 229 421 q 229 443 250 456 q 271 468 310 468 q 334 468 360 462 q 385 456 416 443 q 434 463 443 487 q 451 510 451 540 q 451 620 392 665 q 333 711 230 711 l 169 711 z m 400 427 q 373 438 351 442 q 330 447 310 447 q 281 447 266 441 q 251 435 251 423 q 251 412 268 404 q 285 397 313 397 q 336 397 358 405 q 380 412 400 427 z"},"K":{"x_min":0,"x_max":576,"ha":576,"o":"m 484 709 q 491 715 502 725 q 516 738 522 738 q 526 738 530 734 q 534 730 534 725 q 534 720 518 708 q 505 700 497 693 l 272 510 l 553 45 q 557 39 563 29 q 576 10 576 4 q 576 0 572 -4 q 567 -7 562 -7 q 555 -7 545 13 q 538 26 533 34 l 254 497 l 169 427 l 169 185 q 169 146 170 100 q 171 55 174 0 l 62 0 q 64 52 66 98 q 67 144 67 185 l 67 546 q 67 588 66 633 q 64 678 62 731 l 174 731 q 171 676 170 631 q 169 585 169 546 l 169 454 z"},"R":{"x_min":0,"x_max":620,"ha":620,"o":"m 186 731 q 366 731 473 649 q 579 568 579 432 q 579 338 532 273 q 485 208 390 169 q 433 88 479 51 q 524 13 578 13 q 593 13 598 11 q 603 8 603 3 q 603 -3 599 -6 q 595 -8 582 -8 q 519 -8 469 32 q 419 72 369 163 q 353 158 335 156 q 318 153 301 153 q 258 153 231 172 q 204 190 204 219 q 204 240 219 253 q 235 266 260 266 q 292 266 322 247 q 351 228 378 188 q 468 222 512 282 q 556 343 556 432 q 556 561 457 636 q 358 711 186 711 l 169 711 l 169 185 q 169 146 170 100 q 171 55 174 0 l 62 0 q 64 52 66 98 q 67 144 67 185 l 67 546 q 67 587 66 633 q 64 679 62 731 z m 358 181 q 335 213 311 229 q 286 245 260 245 q 244 245 234 237 q 224 229 224 218 q 224 199 246 186 q 268 173 302 173 q 316 173 330 175 q 343 177 358 181 z"},"T":{"x_min":0,"x_max":498,"ha":498,"o":"m 198 711 l 69 711 q 58 711 41 709 q 24 708 19 708 q 8 708 4 711 q 0 714 0 721 q 0 728 4 731 q 7 734 17 734 q 22 734 40 732 q 57 731 69 731 l 428 731 q 440 731 457 732 q 475 734 480 734 q 490 734 494 731 q 498 728 498 721 q 498 714 494 711 q 490 708 479 708 q 473 708 456 709 q 439 711 428 711 l 300 711 l 300 185 q 300 135 301 89 q 302 43 304 0 l 193 0 q 195 52 197 98 q 198 144 198 185 z"},"P":{"x_min":0,"x_max":611,"ha":611,"o":"m 169 711 l 169 181 q 188 175 210 173 q 232 170 259 170 q 398 170 480 240 q 561 311 561 432 q 561 561 462 636 q 363 711 191 711 z m 192 731 q 373 731 478 649 q 584 568 584 432 q 584 303 496 226 q 408 149 260 149 q 235 149 212 151 q 190 154 169 159 q 169 127 170 89 q 171 50 174 0 l 62 0 q 64 52 66 98 q 67 144 67 185 l 67 546 q 67 587 66 633 q 64 679 62 731 z"},"|":{"x_min":0,"x_max":500,"ha":500,"o":"m 272 764 l 272 -236 l 228 -236 l 228 764 z"},"t":{"x_min":0,"x_max":187,"ha":187,"o":"m 60 350 l 50 350 q 45 350 40 350 q 34 349 33 349 q 30 349 24 349 q 19 348 16 348 q 7 348 4 351 q 0 354 0 360 q 0 366 4 369 q 8 372 17 372 q 18 372 29 371 q 40 370 50 370 l 60 370 l 60 557 q 60 568 62 572 q 64 575 70 578 l 107 599 q 111 601 115 603 q 119 604 120 604 q 125 604 127 600 q 130 596 130 589 q 130 587 129 580 q 127 530 127 480 l 127 370 l 138 370 q 149 370 161 371 q 174 372 175 372 q 181 372 184 369 q 187 366 187 360 q 187 354 183 351 q 180 348 171 348 q 170 348 159 349 q 148 350 138 350 l 127 350 l 127 93 q 127 65 128 43 q 128 22 130 0 l 58 0 q 59 14 60 28 q 60 42 60 65 l 60 93 z"},"M":{"x_min":0,"x_max":826,"ha":826,"o":"m 90 44 q 90 34 91 21 q 92 9 92 8 q 92 0 89 -4 q 86 -8 79 -8 q 72 -8 69 -4 q 66 0 66 10 q 66 12 66 23 q 67 34 67 44 l 67 686 q 67 696 66 708 q 66 719 66 721 q 66 730 69 734 q 72 738 79 738 q 83 738 87 734 q 91 730 95 723 l 415 113 l 738 727 q 741 732 744 735 q 748 738 750 738 q 756 738 760 734 q 764 731 764 725 q 764 718 763 705 q 762 692 762 686 l 759 185 q 759 146 760 100 q 761 55 764 0 l 655 0 q 658 47 659 93 q 660 139 660 185 l 662 539 l 382 7 q 380 3 377 2 q 375 0 373 0 q 371 0 369 2 q 367 3 365 7 l 90 534 z"},"g":{"x_min":0,"x_max":377,"ha":377,"o":"m 251 25 q 231 8 208 0 q 185 -9 159 -9 q 97 -9 62 30 q 26 69 26 137 q 26 204 68 249 q 110 295 172 295 q 193 295 214 287 q 234 279 251 265 l 250 286 l 323 286 q 322 272 321 259 q 321 245 321 222 l 321 193 l 321 -10 q 321 -103 287 -151 q 252 -199 187 -199 q 179 -199 176 -197 q 172 -194 172 -189 q 172 -182 187 -179 q 203 -176 213 -171 q 234 -162 242 -143 q 251 -124 251 -65 z m 251 51 l 251 239 q 234 256 214 265 q 194 274 172 274 q 120 274 84 235 q 49 196 49 137 q 49 79 78 45 q 108 11 159 11 q 184 11 207 21 q 229 31 251 51 z"},"j":{"x_min":0,"x_max":183,"ha":183,"o":"m 126 -10 q 126 -103 92 -151 q 58 -199 -7 -199 q -15 -199 -18 -197 q -22 -194 -22 -190 q -22 -182 -6 -178 q 8 -175 18 -171 q 40 -162 48 -142 q 57 -122 57 -65 l 57 193 q 57 220 56 242 q 56 264 54 286 l 128 286 q 127 272 126 259 q 126 245 126 222 l 126 193 z m 57 405 q 57 420 67 431 q 77 442 91 442 q 105 442 116 431 q 126 420 126 405 q 126 390 116 379 q 105 368 91 368 q 77 368 67 378 q 57 388 57 402 z"},"i":{"x_min":0,"x_max":183,"ha":183,"o":"m 57 405 q 57 420 67 431 q 77 442 91 442 q 105 442 116 431 q 126 420 126 405 q 126 390 116 379 q 105 368 91 368 q 77 368 67 378 q 57 388 57 402 z m 57 193 q 57 220 56 242 q 56 264 54 286 l 128 286 q 127 272 126 259 q 126 245 126 222 l 126 193 l 126 64 q 126 42 126 28 q 127 14 128 0 l 54 0 q 56 22 56 44 q 57 65 57 93 z"},"y":{"x_min":0,"x_max":392,"ha":392,"o":"m 336 -10 q 336 -103 302 -151 q 269 -199 203 -199 q 195 -199 191 -197 q 187 -194 187 -189 q 187 -182 202 -179 q 218 -176 228 -171 q 249 -162 258 -143 q 266 -124 266 -65 l 266 41 q 240 17 210 4 q 180 -9 150 -9 q 100 -9 77 17 q 54 43 54 101 l 54 221 q 54 244 54 258 q 53 272 52 286 l 126 286 q 125 272 125 259 q 124 245 124 222 l 124 193 l 124 60 q 124 36 134 24 q 143 12 162 12 q 186 12 213 26 q 241 40 266 65 l 266 221 q 266 244 266 258 q 265 272 264 286 l 338 286 q 337 272 336 259 q 336 245 336 222 l 336 193 z"},"@":{"x_min":0,"x_max":1000,"ha":1000,"o":"m 636 404 l 666 467 l 705 467 l 638 197 q 633 179 631 165 q 628 151 628 144 q 628 123 643 111 q 658 99 685 99 q 708 99 734 109 q 759 118 784 136 q 833 172 863 237 q 893 302 893 375 q 893 508 796 590 q 698 671 539 671 q 457 671 387 647 q 318 624 261 577 q 186 515 148 432 q 110 350 110 249 q 110 89 218 -6 q 326 -101 507 -101 q 585 -101 665 -76 q 745 -52 811 -7 l 825 -29 q 754 -83 675 -109 q 595 -136 509 -136 q 417 -136 341 -114 q 265 -91 206 -46 q 132 10 95 85 q 59 159 59 255 q 59 334 84 405 q 108 476 156 534 q 226 620 324 664 q 423 708 544 708 q 622 708 693 687 q 763 665 814 626 q 876 578 909 515 q 941 453 941 380 q 941 297 910 229 q 879 162 822 116 q 789 90 751 76 q 712 62 673 62 q 626 62 603 80 q 579 98 579 133 q 579 139 581 149 q 581 151 581 152 q 557 109 520 85 q 483 62 439 62 q 364 62 325 103 q 286 143 286 221 q 286 333 352 410 q 417 487 511 487 q 558 487 589 466 q 621 445 636 404 z m 595 228 l 626 352 q 615 400 586 426 q 557 451 512 451 q 438 451 387 384 q 337 316 337 218 q 337 162 365 130 q 393 98 443 98 q 497 98 539 134 q 580 169 595 228 z"},".":{"x_min":0,"x_max":280,"ha":280,"o":"m 89 38 q 89 59 104 74 q 119 89 140 89 q 161 89 176 74 q 191 59 191 38 q 191 17 176 2 q 161 -13 140 -13 q 120 -13 104 2 q 89 17 89 38 z"},"p":{"x_min":0,"x_max":377,"ha":377,"o":"m 126 49 q 143 30 164 21 q 185 12 212 12 q 262 12 295 51 q 328 90 328 149 q 328 205 297 239 q 267 274 218 274 q 190 274 168 264 q 146 255 126 235 z m 126 -95 l 126 -123 q 126 -146 126 -159 q 127 -173 128 -187 l 54 -187 q 56 -165 56 -143 q 57 -122 57 -95 l 57 193 q 57 220 56 242 q 56 264 54 286 l 128 286 q 127 278 126 273 q 126 268 126 263 q 148 280 169 288 q 190 295 219 295 q 277 295 314 254 q 352 213 352 150 q 352 81 312 36 q 273 -9 212 -9 q 188 -9 166 -1 q 144 6 126 21 z"},"X":{"x_min":0,"x_max":576,"ha":576,"o":"m 260 338 l 55 32 q 51 26 43 14 q 31 -7 24 -7 q 20 -7 16 -3 q 12 0 12 4 q 12 9 26 28 q 33 38 37 44 l 249 357 l 85 628 q 79 639 64 662 q 49 685 19 731 l 140 731 q 151 707 174 669 q 179 662 181 658 l 320 423 l 506 699 q 511 706 519 719 q 530 739 536 739 q 541 739 545 735 q 549 731 549 727 q 549 723 539 709 q 529 696 523 687 l 331 403 l 499 130 q 511 110 533 76 q 554 42 581 0 l 458 0 q 437 42 415 81 q 413 84 412 85 z"},"*":{"x_min":0,"x_max":500,"ha":500,"o":"m 124 447 l 86 513 q 120 516 157 529 q 195 542 230 564 q 195 585 157 599 q 120 612 86 615 l 124 681 q 142 655 172 629 q 203 603 240 581 l 240 588 q 240 627 233 665 q 226 702 212 731 l 288 731 q 274 701 267 664 q 260 627 260 588 l 260 581 q 297 603 328 629 q 358 655 376 681 l 414 615 q 380 612 342 599 q 305 585 270 564 q 305 542 342 529 q 380 516 414 513 l 376 447 q 357 473 327 498 q 297 524 260 546 l 260 539 q 260 499 267 462 q 274 425 288 396 l 212 396 q 226 425 233 462 q 240 500 240 539 l 240 546 q 203 524 173 498 q 143 473 124 447 z"},"Y":{"x_min":0,"x_max":618,"ha":618,"o":"m 374 185 q 374 135 375 89 q 376 43 378 0 l 267 0 q 270 53 271 98 q 272 144 272 185 l 272 189 l 41 647 q 36 659 24 679 q 12 699 -9 731 l 113 731 q 121 709 127 694 q 133 679 138 669 l 356 235 l 579 695 q 583 703 588 717 q 597 738 605 738 q 609 738 613 735 q 617 732 617 728 q 617 724 608 708 q 602 695 597 686 l 374 223 z"},"c":{"x_min":0,"x_max":296,"ha":296,"o":"m 110 52 q 110 30 126 19 q 142 8 173 8 q 219 8 256 40 q 263 46 265 46 q 270 46 274 43 q 278 40 278 36 q 278 21 245 4 q 212 -13 173 -13 q 109 -13 67 29 q 25 72 25 136 q 25 206 68 252 q 111 299 175 299 q 211 299 240 283 q 270 267 270 252 q 270 248 267 244 q 263 241 258 241 q 258 241 234 260 q 211 278 179 278 q 146 278 128 265 q 110 251 110 227 z"},"!":{"x_min":0,"x_max":208,"ha":208,"o":"m 68 731 l 140 731 q 149 731 154 727 q 158 723 158 715 q 158 713 155 697 q 116 496 116 228 l 116 188 q 116 175 114 170 q 111 166 104 166 q 98 166 95 170 q 92 175 92 183 q 92 185 92 198 q 93 211 93 222 q 93 243 92 278 q 91 312 91 325 q 91 501 56 681 q 50 709 50 714 q 50 722 54 727 q 59 731 68 731 z m 53 38 q 53 59 68 74 q 83 89 104 89 q 125 89 140 74 q 155 59 155 38 q 155 17 140 2 q 125 -13 104 -13 q 83 -13 68 2 q 53 17 53 38 z"},"/":{"x_min":0,"x_max":278,"ha":278,"o":"m 276 740 q 277 744 281 746 q 286 749 289 749 q 294 749 298 744 q 302 740 302 733 q 302 731 300 724 q 297 717 294 709 l -2 -85 q -3 -88 -7 -90 q -10 -92 -14 -92 q -17 -92 -21 -87 q -25 -82 -25 -77 q -25 -73 -23 -67 q -22 -61 -19 -54 z"},"[":{"x_min":0,"x_max":336,"ha":336,"o":"m 185 711 l 185 -107 l 220 -107 q 241 -107 265 -104 q 271 -104 272 -104 q 281 -104 285 -107 q 289 -110 289 -117 q 289 -124 285 -127 q 282 -130 275 -130 q 273 -130 255 -129 q 236 -128 220 -128 l 111 -128 q 113 -76 114 -30 q 116 17 116 58 l 116 546 q 116 587 115 633 q 113 678 111 731 l 220 731 q 236 731 255 732 q 273 734 275 734 q 282 734 285 731 q 289 728 289 721 q 288 714 284 711 q 281 708 272 708 q 271 708 265 708 q 241 711 220 711 z"},"6":{"x_min":0,"x_max":528,"ha":528,"o":"m 119 257 q 118 250 118 241 q 117 232 117 214 q 117 116 162 62 q 207 9 288 9 q 371 9 427 62 q 482 116 482 197 q 482 271 432 319 q 382 368 308 368 q 244 368 196 340 q 148 312 119 257 z m 123 298 q 152 342 200 365 q 248 388 308 388 q 392 388 448 334 q 505 280 505 199 q 505 108 442 48 q 380 -12 284 -12 q 174 -12 101 69 q 28 149 28 275 q 28 415 109 509 q 189 604 308 604 q 366 604 416 580 q 465 556 465 538 q 465 533 461 530 q 458 527 453 527 q 448 527 435 539 q 382 583 314 583 q 230 583 183 512 q 136 442 123 298 z"},"r":{"x_min":0,"x_max":292,"ha":292,"o":"m 54 0 q 56 22 56 44 q 57 65 57 93 l 57 193 q 57 220 56 242 q 56 264 54 286 l 128 286 q 127 282 126 277 q 126 272 126 262 l 126 239 q 141 265 164 280 q 187 295 209 295 q 242 295 263 274 q 284 252 284 219 q 284 187 262 164 q 240 142 208 142 q 197 142 190 146 q 183 149 183 154 q 183 159 186 162 q 189 165 194 165 q 196 165 200 164 q 205 163 207 163 q 232 163 247 179 q 262 194 262 220 q 262 245 247 259 q 232 274 207 274 q 186 274 163 255 q 141 235 126 203 l 126 64 q 126 42 126 28 q 127 14 128 0 z"},"2":{"x_min":0,"x_max":500,"ha":500,"o":"m 158 49 q 132 62 112 69 q 92 75 75 75 q 50 75 34 65 q 18 54 18 38 q 18 25 28 17 q 38 9 55 9 q 76 9 103 19 q 130 30 158 49 z m 181 37 q 141 12 110 0 q 80 -12 55 -12 q 28 -12 11 1 q -5 15 -5 36 q -5 61 18 78 q 41 95 74 95 q 96 95 122 87 q 147 79 177 63 q 254 125 299 221 q 343 317 343 421 q 343 499 314 540 q 285 581 230 581 q 173 581 129 551 q 85 521 74 475 q 73 469 71 458 q 69 439 57 439 q 51 439 49 442 q 46 445 46 452 q 46 507 103 555 q 160 604 237 604 q 324 604 379 550 q 434 497 434 412 q 434 324 377 237 q 320 149 199 51 q 233 30 267 19 q 301 9 335 9 q 367 9 392 21 q 417 33 429 55 q 432 61 436 71 q 441 89 450 89 q 455 89 458 86 q 462 84 462 80 q 462 47 424 18 q 387 -12 337 -12 q 298 -12 259 0 q 221 12 181 37 z"},"{":{"x_min":0,"x_max":500,"ha":500,"o":"m 414 678 l 396 678 q 330 678 307 653 q 284 628 284 549 l 284 431 q 284 346 263 310 q 242 274 189 259 q 242 243 263 208 q 284 173 284 87 l 284 -31 q 284 -110 307 -135 q 330 -159 395 -159 l 414 -159 l 414 -202 l 393 -202 q 301 -202 267 -166 q 234 -129 234 -19 l 234 98 q 234 175 206 207 q 177 238 108 238 q 104 238 97 237 q 90 237 86 237 l 86 281 q 91 280 96 280 q 101 280 110 280 q 178 280 206 311 q 234 343 234 420 l 234 537 q 234 648 267 685 q 301 721 393 721 l 414 721 z"},"9":{"x_min":0,"x_max":528,"ha":528,"o":"m 409 335 q 410 349 411 357 q 411 365 411 372 q 411 474 368 528 q 324 583 244 583 q 157 583 101 530 q 45 477 45 395 q 45 321 96 273 q 146 225 225 225 q 285 225 333 254 q 381 283 409 335 z m 404 295 q 375 252 328 228 q 281 204 224 204 q 136 204 79 258 q 22 311 22 393 q 22 483 85 544 q 148 604 244 604 q 354 604 427 523 q 500 442 500 317 q 500 178 419 83 q 339 -12 220 -12 q 162 -12 113 12 q 63 37 63 55 q 63 59 66 62 q 70 66 74 66 q 80 66 94 54 q 146 9 213 9 q 296 9 343 79 q 390 150 404 295 z"}," ":{"x_min":0,"x_max":280,"ha":280,"o":""},"I":{"x_min":0,"x_max":245,"ha":245,"o":"m 173 185 q 173 135 174 89 q 175 43 178 0 l 67 0 q 69 52 70 98 q 71 144 71 185 l 71 546 q 71 587 70 633 q 69 679 67 731 l 178 731 q 175 688 174 642 q 173 597 173 546 z"},"H":{"x_min":0,"x_max":634,"ha":634,"o":"m 169 443 l 169 185 q 169 146 170 100 q 171 55 174 0 l 62 0 q 64 52 66 98 q 67 144 67 185 l 67 546 q 67 588 66 633 q 64 678 62 731 l 174 731 q 171 676 170 631 q 169 585 169 546 l 169 464 l 544 464 l 544 686 q 544 697 543 708 q 542 720 542 721 q 542 730 545 734 q 548 738 556 738 q 562 738 566 734 q 569 730 569 722 q 569 721 568 709 q 567 697 567 686 l 567 45 q 567 35 568 23 q 569 11 569 9 q 569 0 566 -3 q 562 -7 556 -7 q 548 -7 545 -3 q 542 1 542 10 q 542 12 543 23 q 544 35 544 45 l 544 443 z"},"4":{"x_min":0,"x_max":519,"ha":519,"o":"m 322 503 l 42 191 q 58 194 73 196 q 88 198 101 198 q 138 198 211 184 q 285 170 322 169 z m 395 93 l 395 64 q 395 42 396 28 q 396 14 397 0 l 319 0 q 320 22 321 43 q 322 65 322 93 l 322 148 q 283 149 210 163 q 137 177 101 177 q 74 177 41 168 q 8 159 5 159 q 1 159 -1 161 q -4 163 -4 165 q -4 167 -3 170 q -2 172 1 176 l 376 597 q 380 602 383 603 q 385 604 387 604 q 391 604 394 600 q 397 596 397 590 q 397 588 396 581 q 395 553 395 527 l 395 169 q 448 172 488 197 q 494 201 496 201 q 502 201 505 198 q 508 196 508 191 q 508 180 474 165 q 440 150 395 148 z"},"~":{"x_min":0,"x_max":833,"ha":833,"o":"m 747 316 q 695 280 648 262 q 602 244 558 244 q 510 244 428 274 q 420 277 417 278 q 412 280 401 284 q 320 313 276 313 q 235 313 190 295 q 146 276 87 235 l 87 280 q 138 316 185 333 q 232 351 276 351 q 325 351 408 321 q 414 319 417 318 q 421 316 431 313 q 513 283 558 283 q 599 283 644 302 q 688 320 747 361 z"},"D":{"x_min":0,"x_max":670,"ha":670,"o":"m 169 21 l 218 21 q 285 21 329 27 q 373 34 410 48 q 508 86 563 172 q 619 258 619 372 q 619 483 562 565 q 505 647 398 688 q 367 700 323 705 q 278 711 214 711 l 169 711 z m 62 0 q 64 52 66 98 q 67 144 67 185 l 67 546 q 67 587 66 633 q 64 679 62 731 l 192 731 q 290 731 339 724 q 389 717 426 701 q 530 656 586 571 q 642 485 642 372 q 642 268 599 188 q 557 107 474 56 q 426 26 370 13 q 313 0 218 0 z"},"^":{"x_min":0,"x_max":1000,"ha":1000,"o":"m 528 712 l 792 440 l 731 440 l 500 669 l 268 440 l 207 440 l 470 712 z"},"0":{"x_min":0,"x_max":559,"ha":559,"o":"m 298 584 q 214 584 169 508 q 123 431 123 290 q 123 154 168 83 q 213 12 299 12 q 387 12 447 97 q 508 182 508 308 q 508 428 448 506 q 388 584 298 584 z m 28 284 q 28 425 103 515 q 177 605 294 605 q 396 605 463 521 q 531 436 531 306 q 531 169 461 79 q 392 -11 286 -11 q 175 -11 101 73 q 28 157 28 284 z"},"F":{"x_min":0,"x_max":491,"ha":491,"o":"m 169 185 q 169 146 170 100 q 171 55 174 0 l 62 0 q 64 52 66 98 q 67 144 67 185 l 67 546 q 67 587 66 633 q 64 679 62 731 l 388 731 q 400 731 417 732 q 435 734 440 734 q 450 734 454 731 q 458 728 458 721 q 458 714 454 711 q 450 708 439 708 q 434 708 416 709 q 399 711 388 711 l 169 711 l 169 499 l 419 499 q 432 499 450 500 q 469 501 474 501 q 483 501 487 498 q 491 495 491 488 q 491 481 488 479 q 484 476 472 476 q 467 476 449 477 q 432 478 419 478 l 169 478 z"},"`":{"x_min":0,"x_max":500,"ha":500,"o":"m 180 505 l 308 353 l 289 353 l 148 479 q 139 488 135 494 q 131 500 131 506 q 131 514 136 520 q 142 525 151 525 q 158 525 164 521 q 170 517 180 505 z"},"k":{"x_min":0,"x_max":324,"ha":324,"o":"m 57 639 q 57 666 56 687 q 56 708 54 731 l 128 731 q 127 717 126 704 q 126 690 126 667 l 126 639 l 126 173 l 243 270 q 248 274 256 282 q 271 295 278 295 q 282 295 285 291 q 289 287 289 282 q 289 277 273 265 q 262 257 256 252 l 171 182 l 286 38 q 291 32 302 21 q 313 9 313 3 q 313 -1 309 -5 q 304 -9 299 -9 q 292 -9 282 7 q 274 19 269 25 l 154 169 l 126 146 l 126 64 q 126 42 126 28 q 127 14 128 0 l 54 0 q 56 22 56 44 q 57 65 57 93 z"},"u":{"x_min":0,"x_max":392,"ha":392,"o":"m 266 41 q 240 17 210 4 q 180 -9 150 -9 q 100 -9 77 17 q 54 43 54 101 l 54 221 q 54 244 54 258 q 53 272 52 286 l 126 286 q 125 272 125 259 q 124 245 124 222 l 124 193 l 124 60 q 124 36 134 24 q 143 12 162 12 q 186 12 213 26 q 241 40 266 65 l 266 221 q 266 244 266 258 q 265 272 264 286 l 338 286 q 337 272 336 259 q 336 245 336 222 l 336 193 l 336 64 q 336 42 336 28 q 337 14 338 0 l 264 0 q 265 4 266 9 q 266 14 266 24 z"},"]":{"x_min":0,"x_max":336,"ha":336,"o":"m 150 -107 l 150 710 l 116 710 q 94 710 70 708 q 63 708 62 708 q 54 708 51 711 q 47 714 47 721 q 47 728 50 731 q 53 734 60 734 q 62 734 81 732 q 99 731 116 731 l 225 731 q 223 676 221 631 q 220 586 220 546 l 220 57 q 220 17 221 -28 q 223 -74 225 -128 l 116 -128 q 99 -128 81 -129 q 62 -130 60 -130 q 53 -130 50 -127 q 47 -124 47 -117 q 47 -110 50 -108 q 54 -105 62 -105 q 63 -105 70 -105 q 94 -107 116 -107 z"},"U":{"x_min":0,"x_max":699,"ha":699,"o":"m 62 731 l 174 731 q 171 676 170 631 q 169 585 169 546 l 169 326 q 169 159 216 85 q 263 12 369 12 q 482 12 546 95 q 609 178 609 329 l 609 686 q 609 697 608 708 q 607 720 607 721 q 607 730 610 734 q 613 738 620 738 q 627 738 630 734 q 633 730 633 722 q 633 721 632 709 q 632 697 632 686 l 632 386 q 632 278 623 223 q 614 168 593 126 q 558 55 498 20 q 438 -16 352 -16 q 211 -16 139 68 q 67 152 67 317 l 67 546 q 67 587 66 633 q 64 679 62 731 z"},"o":{"x_min":0,"x_max":366,"ha":366,"o":"m 110 52 q 110 32 130 20 q 149 8 183 8 q 238 8 277 48 q 317 87 317 143 q 317 200 278 239 q 239 278 183 278 q 147 278 129 265 q 110 252 110 227 z m 183 299 q 249 299 294 254 q 340 209 340 143 q 340 79 294 33 q 248 -12 183 -12 q 119 -12 72 34 q 25 81 25 143 q 25 207 71 253 q 118 299 183 299 z"},"N":{"x_min":0,"x_max":644,"ha":644,"o":"m 553 437 l 553 686 q 553 697 552 708 q 552 720 552 721 q 552 730 555 734 q 558 738 565 738 q 572 738 575 734 q 578 730 578 722 q 578 721 577 709 q 576 697 576 686 l 576 45 q 576 35 577 23 q 578 11 578 9 q 578 0 575 -3 q 572 -7 565 -7 q 558 -7 555 -3 q 552 0 552 10 q 552 12 552 23 q 553 35 553 45 l 553 321 l 90 612 l 90 44 q 90 34 91 21 q 92 9 92 8 q 92 0 89 -4 q 86 -8 79 -8 q 72 -8 69 -4 q 66 0 66 10 q 66 12 66 23 q 67 34 67 44 l 67 686 l 67 718 q 67 728 69 733 q 71 738 76 738 q 80 738 95 727 q 110 715 122 708 z"},"+":{"x_min":0,"x_max":833,"ha":833,"o":"m 436 596 l 436 318 l 709 318 l 709 278 l 436 278 l 436 0 l 397 0 l 397 278 l 124 278 l 124 318 l 397 318 l 397 596 z"},"G":{"x_min":0,"x_max":773,"ha":773,"o":"m 698 225 l 433 225 q 425 225 413 225 q 400 224 396 224 q 381 224 380 243 q 380 250 380 253 q 379 264 377 277 q 375 290 375 292 q 375 297 377 299 q 379 301 385 301 q 385 301 395 300 q 404 300 412 300 l 715 300 q 725 300 729 298 q 734 295 734 290 q 734 255 709 198 q 684 141 646 97 q 597 42 534 13 q 471 -16 397 -16 q 236 -16 132 88 q 28 193 28 355 q 28 454 67 537 q 106 619 179 675 q 225 710 282 729 q 338 748 400 748 q 464 748 519 728 q 574 707 617 667 q 636 649 647 635 q 658 620 658 613 q 658 607 655 605 q 652 602 648 602 q 643 602 635 615 q 626 628 617 638 q 579 680 525 703 q 471 727 415 727 q 280 727 210 634 q 141 540 141 358 q 141 187 208 96 q 275 6 401 6 q 502 6 580 64 q 659 122 698 225 z"},"q":{"x_min":0,"x_max":377,"ha":377,"o":"m 251 51 l 251 239 q 234 256 214 265 q 194 274 172 274 q 120 274 84 235 q 49 196 49 137 q 49 79 78 45 q 108 11 159 11 q 184 11 207 21 q 229 31 251 51 z m 321 -95 l 321 -123 q 321 -146 321 -159 q 322 -173 323 -187 l 249 -187 q 250 -173 250 -159 q 251 -145 251 -122 l 251 -95 l 251 25 q 231 8 208 0 q 185 -9 159 -9 q 97 -9 62 30 q 26 69 26 137 q 26 204 68 249 q 110 295 172 295 q 193 295 214 287 q 234 279 251 265 l 250 286 l 323 286 q 322 272 321 259 q 321 245 321 222 l 321 193 z"},"d":{"x_min":0,"x_max":377,"ha":377,"o":"m 251 25 q 231 8 208 0 q 185 -9 159 -9 q 97 -9 62 30 q 26 69 26 137 q 26 204 68 249 q 110 295 172 295 q 193 295 214 287 q 234 279 251 265 l 251 666 q 251 689 250 703 q 250 718 249 731 l 323 731 q 322 717 321 704 q 321 690 321 667 l 321 639 l 321 64 q 321 42 321 28 q 322 14 323 0 l 249 0 z m 251 51 l 251 239 q 234 256 214 265 q 194 274 172 274 q 120 274 84 235 q 49 196 49 137 q 49 79 78 45 q 108 11 159 11 q 184 11 207 21 q 229 31 251 51 z"},"1":{"x_min":0,"x_max":301,"ha":301,"o":"m 193 185 q 193 138 194 91 q 195 45 198 0 l 113 0 q 116 53 117 98 q 118 144 118 185 l 118 554 q 100 547 76 536 q 53 526 48 526 q 43 526 40 530 q 36 534 36 540 q 36 548 64 557 q 86 564 102 571 l 172 600 q 176 602 180 603 q 184 604 185 604 q 191 604 193 601 q 195 599 195 591 q 195 586 194 572 q 193 557 193 546 z"},"5":{"x_min":0,"x_max":516,"ha":516,"o":"m 118 355 q 101 342 91 327 q 81 311 81 299 q 81 294 84 290 q 87 286 91 286 q 102 286 109 304 q 116 323 118 355 z m 118 380 l 129 553 q 130 572 140 583 q 149 593 166 593 q 170 593 185 590 q 257 579 329 579 q 371 579 410 587 q 417 589 419 589 q 424 589 427 584 q 430 579 430 570 q 430 557 423 552 q 417 547 398 547 q 333 547 256 559 q 179 571 172 571 q 151 571 148 533 q 148 530 148 529 l 139 389 q 165 400 192 406 q 218 411 247 411 q 343 411 408 352 q 472 293 472 204 q 472 108 406 48 q 339 -12 231 -12 q 150 -12 89 30 q 29 72 29 119 q 29 126 32 129 q 36 133 43 133 q 53 133 57 111 q 59 103 60 98 q 73 60 120 34 q 167 9 228 9 q 306 9 342 59 q 378 109 378 218 q 378 308 345 349 q 313 390 243 390 q 217 390 190 384 q 164 378 140 366 q 137 314 125 290 q 112 265 89 265 q 75 265 67 274 q 59 284 59 299 q 59 319 74 341 q 90 362 118 380 z"}}}
